<svg xmlns="http://www.w3.org/2000/svg" width="408.074" height="484.495" viewBox="0 0 408.074 484.495">
  <g id="undraw_Messages_re_qy9x" transform="translate(-101.963 0)">
    <path id="Path_46" data-name="Path 46" d="M757.177,200.654h-2.66V127.783A42.176,42.176,0,0,0,712.34,85.607H557.952a42.176,42.176,0,0,0-42.176,42.176V527.561a42.176,42.176,0,0,0,42.176,42.176H712.34a42.176,42.176,0,0,0,42.176-42.176V252.525h2.66Z" transform="translate(-265.803 -85.607)" fill="#bcfcfc"/>
    <path id="Path_47" data-name="Path 47" d="M751.4,133.6v399.19a31.5,31.5,0,0,1-31.5,31.5H564.77a31.5,31.5,0,0,1-31.5-31.5V133.6a31.5,31.5,0,0,1,31.5-31.5h18.82a14.972,14.972,0,0,0,13.857,20.615h88.447A14.972,14.972,0,0,0,699.749,102.1H719.9a31.5,31.5,0,0,1,31.5,31.5Z" transform="translate(-271.661 -91.129)" fill="#fff"/>
    <path id="Path_48" data-name="Path 48" d="M582.34,157.758a21.287,21.287,0,1,0,0,42.574h0a21.287,21.287,0,1,0,0-42.574Z" transform="translate(-280.961 -109.762)" fill="#bcfcfc"/>
    <path id="Path_49" data-name="Path 49" d="M766.469,211.4H654.713a5.322,5.322,0,0,1,0-10.643H766.469a5.322,5.322,0,1,1,0,10.643Z" transform="translate(-310.535 -124.157)" fill="#bcfcfc"/>
    <path id="Path_50" data-name="Path 50" d="M689.969,177.4H654.713a5.322,5.322,0,0,1,0-10.643h35.257a5.322,5.322,0,0,1,0,10.643Z" transform="translate(-310.535 -112.775)" fill="#bcfcfc"/>
    <path id="Path_51" data-name="Path 51" d="M582.34,291.758a21.287,21.287,0,1,0,0,42.574h0a21.287,21.287,0,1,0,0-42.574Z" transform="translate(-280.961 -154.623)" fill="#bcfcfc"/>
    <path id="Path_52" data-name="Path 52" d="M766.469,345.4H654.713a5.322,5.322,0,0,1,0-10.643H766.469a5.322,5.322,0,1,1,0,10.643Z" transform="translate(-310.535 -169.018)" fill="#bcfcfc"/>
    <path id="Path_53" data-name="Path 53" d="M689.969,311.4H654.713a5.322,5.322,0,0,1,0-10.643h35.257a5.322,5.322,0,0,1,0,10.643Z" transform="translate(-310.535 -157.636)" fill="#bcfcfc"/>
    <path id="Path_54" data-name="Path 54" d="M582.34,559.758a21.287,21.287,0,1,0,0,42.574h0a21.287,21.287,0,1,0,0-42.574Z" transform="translate(-280.961 -244.344)" fill="#bcfcfc"/>
    <path id="Path_55" data-name="Path 55" d="M766.469,613.4H654.713a5.322,5.322,0,0,1,0-10.643H766.469a5.322,5.322,0,1,1,0,10.643Z" transform="translate(-310.535 -258.74)" fill="#bcfcfc"/>
    <path id="Path_56" data-name="Path 56" d="M689.969,579.4H654.713a5.322,5.322,0,0,1,0-10.643h35.257a5.322,5.322,0,0,1,0,10.643Z" transform="translate(-310.535 -247.357)" fill="#bcfcfc"/>
    <path id="Path_57" data-name="Path 57" d="M582.34,693.758a21.287,21.287,0,1,0,0,42.574h0a21.287,21.287,0,1,0,0-42.574Z" transform="translate(-280.961 -289.205)" fill="#bcfcfc"/>
    <path id="Path_58" data-name="Path 58" d="M766.469,747.4H654.713a5.322,5.322,0,0,1,0-10.643H766.469a5.322,5.322,0,1,1,0,10.643Z" transform="translate(-310.535 -303.601)" fill="#bcfcfc"/>
    <path id="Path_59" data-name="Path 59" d="M689.969,713.4H654.713a5.322,5.322,0,0,1,0-10.643h35.257a5.322,5.322,0,0,1,0,10.643Z" transform="translate(-310.535 -292.218)" fill="#bcfcfc"/>
    <path id="Path_60" data-name="Path 60" d="M755.472,482.2H498.7a10.989,10.989,0,0,1-10.976-10.976V388.734A10.989,10.989,0,0,1,498.7,377.758H755.472a10.988,10.988,0,0,1,10.976,10.976v82.487A10.988,10.988,0,0,1,755.472,482.2Z" transform="translate(-256.411 -183.414)" fill="#fff"/>
    <path id="Path_61" data-name="Path 61" d="M536.317,471.367a30.418,30.418,0,1,1,30.418-30.418,30.418,30.418,0,0,1-30.418,30.418Zm0-59.505A29.087,29.087,0,1,0,565.4,440.95a29.087,29.087,0,0,0-29.087-29.087Z" transform="translate(-262.497 -194.386)" fill="#3f3d56"/>
    <path id="Path_62" data-name="Path 62" d="M794.009,486.509h-156.2a7.438,7.438,0,1,1,0-14.876h156.2a7.438,7.438,0,1,1,0,14.876Z" transform="translate(-304.167 -214.842)" fill="#2ea2a2"/>
    <path id="Path_63" data-name="Path 63" d="M687.086,438.987H637.808a7.438,7.438,0,1,1,0-14.876h49.278a7.438,7.438,0,0,1,0,14.876Z" transform="translate(-304.167 -198.932)" fill="#2ea2a2"/>
    <path id="Path_64" data-name="Path 64" d="M755.472,482.2H498.7a10.989,10.989,0,0,1-10.976-10.976V388.734A10.989,10.989,0,0,1,498.7,377.758H755.472a10.988,10.988,0,0,1,10.976,10.976v82.487A10.988,10.988,0,0,1,755.472,482.2ZM498.7,378.423a10.322,10.322,0,0,0-10.311,10.311v82.487A10.322,10.322,0,0,0,498.7,481.532H755.472a10.322,10.322,0,0,0,10.311-10.311V388.734a10.322,10.322,0,0,0-10.311-10.311Z" transform="translate(-256.411 -183.414)" fill="#3f3d56"/>
    <circle id="Ellipse_54" data-name="Ellipse 54" cx="12.409" cy="12.409" r="12.409" transform="translate(260.874 236.549)" fill="#2f2e41"/>
    <ellipse id="Ellipse_55" data-name="Ellipse 55" cx="5.135" cy="3.851" rx="5.135" ry="3.851" transform="translate(254.522 240.451) rotate(-45)" fill="#2f2e41"/>
    <ellipse id="Ellipse_56" data-name="Ellipse 56" cx="3.851" cy="5.135" rx="3.851" ry="5.135" transform="translate(275.26 237.836) rotate(-66.869)" fill="#2f2e41"/>
    <circle id="Ellipse_57" data-name="Ellipse 57" cx="10.531" cy="10.531" r="10.531" transform="translate(263.145 241.388)" fill="#ffb8b8"/>
    <path id="Path_65" data-name="Path 65" d="M534.774,451.513a14.323,14.323,0,0,0,8.186,2.53,8.777,8.777,0,0,1-3.479,1.431,28.884,28.884,0,0,0,11.8.066,7.637,7.637,0,0,0,2.47-.848,3.125,3.125,0,0,0,1.524-2.039c.259-1.479-.893-2.822-2.091-3.727a15.422,15.422,0,0,0-12.96-2.59,7.1,7.1,0,0,0-3.838,2.169,3.5,3.5,0,0,0-.323,4.152Z" transform="translate(-272.163 -206.218)" fill="#2f2e41"/>
    <path id="Path_66" data-name="Path 66" d="M317.575,572.061a7.146,7.146,0,0,1,5.954-9.2l34.148-39.9,7.964,8.362-34.013,38.259a7.185,7.185,0,0,1-14.053,2.48Z" transform="translate(-199.343 -232.025)" fill="#a0616a"/>
    <path id="Path_67" data-name="Path 67" d="M361.313,524.038a2.991,2.991,0,0,1,.852-2.343l10.55-10.7a8.314,8.314,0,1,1,13.453,9.771l-7.014,13.341a2.993,2.993,0,0,1-4.416,1.024l-12.206-8.921A2.99,2.99,0,0,1,361.313,524.038Z" transform="translate(-214.088 -226.873)" fill="#6c63ff"/>
    <circle id="Ellipse_58" data-name="Ellipse 58" cx="16.338" cy="16.338" r="16.338" transform="translate(155.658 240.006)" fill="#a0616a"/>
    <path id="Path_68" data-name="Path 68" d="M381.907,554.863a2.959,2.959,0,0,1-1.175-2.039,261.432,261.432,0,0,0-4.924-28.079,17.624,17.624,0,0,1,32.726-12.23c6.425,12.059,6.916,28.615,6.829,35.174a2.988,2.988,0,0,1-2.5,2.905L384.2,555.419a3.033,3.033,0,0,1-.506.042A2.968,2.968,0,0,1,381.907,554.863Z" transform="translate(-218.795 -225.406)" fill="#2f2e41"/>
    <path id="Path_69" data-name="Path 69" d="M456.557,498.185a7,7,0,0,0-.159,1.091l-28.576,16.485-6.946-4-7.4,9.694,11.608,8.274a5.322,5.322,0,0,0,6.385-.156l29.467-23.247a6.983,6.983,0,1,0-4.374-8.143Z" transform="translate(-231.554 -221.927)" fill="#a0616a"/>
    <path id="Path_70" data-name="Path 70" d="M419.8,521.689l-9.236,11.97a2.994,2.994,0,0,1-4.526.248L395.584,523.05a8.313,8.313,0,1,1,10.2-13.134l13.113,7.333a2.993,2.993,0,0,1,.908,4.441Z" transform="translate(-224.489 -227.073)" fill="#6c63ff"/>
    <path id="Path_71" data-name="Path 71" d="M315.251,700.611h8.156l1.92-31.355-10.077-.1Z" transform="translate(-105.54 -224.021)" fill="#a0616a"/>
    <path id="Path_72" data-name="Path 72" d="M452.125,798.046h16.062a10.235,10.235,0,0,1,10.235,10.235v.332h-26.3Z" transform="translate(-244.494 -324.119)" fill="#2f2e41"/>
    <path id="Path_73" data-name="Path 73" d="M198.251,700.61h8.156l3.88-31.457H198.25Z" transform="translate(-66.371 -224.021)" fill="#a0616a"/>
    <path id="Path_74" data-name="Path 74" d="M335.125,798.046h16.062a10.235,10.235,0,0,1,10.235,10.235v.332h-26.3Z" transform="translate(-205.324 -324.119)" fill="#2f2e41"/>
    <path id="Path_75" data-name="Path 75" d="M345.209,707.969l-10.121-1.32a2.993,2.993,0,0,1-2.5-3.744l14.764-72.55a168.662,168.662,0,0,0,3.04-21.346c.431-5.836,2.14-14.089,7.831-20.26a85.576,85.576,0,0,0,6.469-7.993l4.469-6.188,29.77-4.736.02.368A172.516,172.516,0,0,0,417,638.17a76.765,76.765,0,0,1,8.051,30.581l1.687,32.9a3,3,0,0,1-.867,2.263,2.959,2.959,0,0,1-2.259.88l-9.676-.44a3,3,0,0,1-2.785-2.335l-8.078-36.041a2.352,2.352,0,0,0-.409-.888l-25.352-33.8a1.663,1.663,0,0,0-2.9.448l-25.99,74.256a3.009,3.009,0,0,1-2.829,2,2.937,2.937,0,0,1-.383-.025Z" transform="translate(-204.44 -247.717)" fill="#2f2e41"/>
    <path id="Path_76" data-name="Path 76" d="M345.245,443.655a72.465,72.465,0,0,0,2.864-12.071,8.175,8.175,0,0,0-2.158-6.6c-3.252-3.081-8.776-1.613-12.177,1.3-4.914,4.214-7.365,10.689-8.292,17.1s-.519,12.922-.742,19.392-1.148,13.122-4.447,18.692-9.419,9.846-15.875,9.372a11.173,11.173,0,0,1-6.994-2.964,8.109,8.109,0,0,1-2.436-7.042c-3.3,5.909-1.627,13.917,3.295,18.562s12.493,5.958,18.964,3.975,11.8-6.956,14.977-12.93A39.7,39.7,0,0,0,336.4,470.8c-.13-5.2-1.013-10.433-.135-15.556s4.084-10.323,9.139-11.53Z" transform="translate(-191.315 -198.651)" fill="#2f2e41"/>
    <path id="Path_77" data-name="Path 77" d="M392.656,454.639a6.467,6.467,0,0,0,7.124,4.168,8.354,8.354,0,0,0,6.306-5.8,11.933,11.933,0,0,0-.933-8.748,13.623,13.623,0,0,0-7.795-6.943,11.185,11.185,0,0,0-10.17,1.625,3.74,3.74,0,0,0-2.614-2.734,7.148,7.148,0,0,0-3.923.058,16.162,16.162,0,0,0-9,6.544,26.3,26.3,0,0,0-4.077,10.509c-1,5.633-.633,11.789,2.53,16.557s9.637,7.583,14.888,5.31a6.938,6.938,0,0,0-1.346-4.81,14.671,14.671,0,0,1-2.306-4.534c-.345-1.671.316-3.714,1.932-4.26,1.379-.466,2.848.289,4.3.38a4.712,4.712,0,0,0,4.52-6.79Z" transform="translate(-216.024 -202.9)" fill="#2f2e41"/>
  </g>
</svg>
