<svg xmlns="http://www.w3.org/2000/svg" xmlns:xlink="http://www.w3.org/1999/xlink" width="667.391" height="659.578" viewBox="0 0 667.391 659.578">
  <defs>
    <clipPath id="clip-path">
      <path id="Path_135" data-name="Path 135" d="M740.067,539.4a166.194,166.194,0,0,1-91.657,148.481q-2.114,1.064-4.272,2.067a166.689,166.689,0,0,1-118.612,8.293q-5.772-1.764-11.363-3.926A166.055,166.055,0,1,1,740.067,539.4Z" transform="translate(-196.755 -88.161)" fill="#738787"/>
    </clipPath>
  </defs>
  <g id="Group_73" data-name="Group 73" transform="translate(-69.548 -106.756)">
    <path id="Path_131" data-name="Path 131" d="M339.593,445.134q-.38-.836-.757-1.678c.1,0,.193.017.29.02Z" transform="translate(38.145 -40.251)" fill="#2f2e41"/>
    <g id="Group_72" data-name="Group 72" transform="translate(193.056 230.239)">
      <path id="Path_136" data-name="Path 136" d="M613.431,1471.278s-32.465-189.192-193.712-142.96S191.943,1146.773,193.07,1110.69" transform="translate(-193.056 -1093.776)" fill="#cff5f5" stroke="#78fefe" stroke-width="1"/>
      <path id="Path_137" data-name="Path 137" d="M558.164,1506.479s-117.271-92.464-83.443-219.883-206.352-192.82-206.352-192.82" transform="translate(-213.103 -1093.776)" fill="#cff5f5" stroke="#78fefe" stroke-width="1"/>
    </g>
    <g id="Group_71" data-name="Group 71" transform="translate(4 -9.537)">
      <path id="Path_136-2" data-name="Path 136" d="M193.056,1471.278s32.465-189.192,193.712-142.96,227.776-181.544,226.648-217.628" transform="translate(-4 -854)" fill="#cff5f5" stroke="#78fefe" stroke-width="1"/>
      <path id="Path_137-2" data-name="Path 137" d="M268.37,1506.479s117.271-92.464,83.443-219.883,206.352-192.82,206.352-192.82" transform="translate(-4 -854)" fill="#cff5f5" stroke="#78fefe" stroke-width="1"/>
    </g>
    <g id="Group_70" data-name="Group 70" transform="translate(0 -4)">
      <g id="Group_66" data-name="Group 66">
        <path id="Path_80" data-name="Path 80" d="M740.067,539.4a166.194,166.194,0,0,1-91.657,148.481q-2.114,1.064-4.272,2.067a166.689,166.689,0,0,1-118.612,8.293q-5.772-1.764-11.363-3.926A166.055,166.055,0,1,1,740.067,539.4Z" transform="translate(-196.755 -88.161)" fill="#738787"/>
        <path id="Path_81" data-name="Path 81" d="M789.169,576.918c24.752-26.874,37.488-67.109,24.143-101.12a168.334,168.334,0,0,1-88.194,74.692c-14.4,5.235-30.963,9.558-38.786,22.734-4.868,8.2-5.213,18.46-3.007,27.735s6.738,17.805,11.224,26.218l.028,2.38C729.629,619.255,764.417,603.792,789.169,576.918Z" transform="translate(-233.812 -102.012)" fill="#075454"/>
        <path id="Path_82" data-name="Path 82" d="M814.619,475.891a143.882,143.882,0,0,1-38.671,79.631,61.966,61.966,0,0,1-15.259,12,35.537,35.537,0,0,1-18.29,3.909c-5.915-.211-11.94-1.111-17.8.119a21.759,21.759,0,0,0-14.242,10.67c-3.881,6.586-5.165,14.173-6.162,21.636-1.107,8.286-2.126,16.911-6.858,24.044-.573.864.8,1.7,1.373.84,8.233-12.409,5.459-28.254,11.009-41.632,2.59-6.243,7.077-11.743,13.791-13.633,5.871-1.654,12.085-.73,18.072-.465a37.922,37.922,0,0,0,18.026-3.156,57.284,57.284,0,0,0,15.664-11.37,139.6,139.6,0,0,0,25.78-35.2,146.432,146.432,0,0,0,15.18-47.364c.143-1.024-1.468-1.049-1.61-.032Z" transform="translate(-235.864 -101.924)" fill="#fff"/>
        <path id="Path_83" data-name="Path 83" d="M796.483,559.881a21.586,21.586,0,0,0,27.875-2.077c.735-.73-.365-1.907-1.1-1.176a19.989,19.989,0,0,1-25.934,1.879c-.834-.614-1.67.763-.84,1.374Z" transform="translate(-249.244 -112.912)" fill="#fff"/>
        <path id="Path_84" data-name="Path 84" d="M752.579,582.243a41.607,41.607,0,0,1,6.276-29.665c.57-.866-.8-1.706-1.373-.84a43.276,43.276,0,0,0-6.468,30.883c.173,1.024,1.737.641,1.565-.377Z" transform="translate(-243.061 -112.233)" fill="#fff"/>
        <path id="Path_85" data-name="Path 85" d="M822.411,511.98a12.22,12.22,0,0,1-7.036-9.216c-.16-1.025-1.724-.642-1.566.377a13.693,13.693,0,0,0,7.761,10.212.832.832,0,0,0,1.107-.267A.809.809,0,0,0,822.411,511.98Z" transform="translate(-251.632 -105.577)" fill="#fff"/>
        <path id="Path_86" data-name="Path 86" d="M691.264,431.2c.082.643.163,1.286.235,1.939a160.911,160.911,0,0,1,1.041,26.083c-.017.674-.045,1.356-.081,2.028a169.64,169.64,0,0,1-14.671,60.711A164.735,164.735,0,0,1,665.8,543.934c-6.279,9.682-13.857,19.68-16.493,30.551a28.258,28.258,0,0,0-.651,3.437l38.5,45.453c.139.059.269.128.408.188l1.454,1.885c.26-.345.522-.709.781-1.054.151-.2.294-.409.446-.609.1-.136.2-.273.293-.391.033-.045.065-.091.088-.127.1-.117.174-.237.26-.345q2.2-3.043,4.374-6.127c.01-.009.01-.009.012-.028,10.981-15.7,20.748-32.446,27.662-50.146.208-.533.427-1.074.617-1.627a157.189,157.189,0,0,0,7.217-24.618,139,139,0,0,0,2.1-13.9,115.576,115.576,0,0,0-2.162-36.069c-5.2-23.593-17.89-45.26-37.9-58.229C692.29,431.842,691.786,431.52,691.264,431.2Z" transform="translate(-229.3 -95.981)" fill="#075454"/>
        <path id="Path_87" data-name="Path 87" d="M694.325,431.676a143.882,143.882,0,0,1,17.066,86.863,61.958,61.958,0,0,1-4.958,18.769,35.537,35.537,0,0,1-12.25,14.133c-4.85,3.393-10.2,6.3-14.143,10.814a21.759,21.759,0,0,0-4.947,17.094c.866,7.595,4.409,14.426,8.106,20.985,4.105,7.283,8.484,14.783,9,23.327.062,1.035,1.665.878,1.6-.156-.9-14.865-12.652-25.846-16.275-39.869-1.691-6.544-1.419-13.637,2.8-19.189,3.692-4.855,9.21-7.859,14.15-11.252a37.92,37.92,0,0,0,12.493-13.373,57.278,57.278,0,0,0,5.661-18.51,139.582,139.582,0,0,0-.607-43.624,146.426,146.426,0,0,0-16.4-46.957c-.5-.9-1.8.046-1.305.944Z" transform="translate(-232.852 -95.869)" fill="#fff"/>
        <path id="Path_88" data-name="Path 88" d="M718.951,518.2a21.587,21.587,0,0,0,21.006-18.441c.147-1.026-1.439-1.3-1.587-.276a19.988,19.988,0,0,1-19.575,17.114C717.759,516.606,717.921,518.209,718.951,518.2Z" transform="translate(-238.69 -105.128)" fill="#fff"/>
        <path id="Path_89" data-name="Path 89" d="M698.04,564.355a41.606,41.606,0,0,1-12.85-27.464c-.066-1.035-1.669-.878-1.6.156A43.277,43.277,0,0,0,697.016,565.6c.754.713,1.773-.534,1.023-1.244Z" transform="translate(-234.023 -110.179)" fill="#fff"/>
        <path id="Path_90" data-name="Path 90" d="M710.631,466.859a12.219,12.219,0,0,1-11.166-3.122c-.745-.722-1.763.526-1.023,1.243a13.692,13.692,0,0,0,12.345,3.482.832.832,0,0,0,.724-.879.809.809,0,0,0-.879-.723Z" transform="translate(-235.998 -100.352)" fill="#fff"/>
        <path id="Path_95" data-name="Path 95" d="M410.526,630.871c-19.748-21.441-29.909-53.542-19.262-80.677a134.3,134.3,0,0,0,70.365,59.592c11.49,4.176,24.7,7.626,30.945,18.138,3.883,6.541,4.159,14.728,2.4,22.128s-5.376,14.206-8.955,20.918l-.022,1.9C458.029,664.648,430.274,652.312,410.526,630.871Z" transform="translate(-193.911 -112.073)" fill="#075454"/>
        <path id="Path_96" data-name="Path 96" d="M392.421,550.268A114.792,114.792,0,0,0,423.274,613.8a49.435,49.435,0,0,0,12.174,9.575,28.352,28.352,0,0,0,14.592,3.119c4.719-.168,9.526-.887,14.2.095a17.361,17.361,0,0,1,11.362,8.513c3.1,5.254,4.12,11.308,4.916,17.262.883,6.611,1.7,13.492,5.472,19.183.457.689-.639,1.359-1.1.671-6.569-9.9-4.355-22.542-8.784-33.216-2.066-4.981-5.646-9.369-11-10.877-4.684-1.319-9.642-.582-14.419-.371a30.258,30.258,0,0,1-14.382-2.518,45.7,45.7,0,0,1-12.5-9.072,111.374,111.374,0,0,1-20.568-28.081,116.829,116.829,0,0,1-12.111-37.789c-.114-.817,1.171-.837,1.285-.026Z" transform="translate(-194.474 -112.002)" fill="#fff"/>
        <path id="Path_97" data-name="Path 97" d="M418.192,617.277a17.222,17.222,0,0,1-22.24-1.657c-.586-.582.291-1.521.878-.938a15.948,15.948,0,0,0,20.691,1.5c.666-.49,1.332.609.671,1.1Z" transform="translate(-195.1 -120.769)" fill="#fff"/>
        <path id="Path_98" data-name="Path 98" d="M455.7,635.119a33.2,33.2,0,0,0-5.007-23.668c-.455-.691.641-1.361,1.1-.67a34.527,34.527,0,0,1,5.16,24.639C456.811,636.236,455.563,635.931,455.7,635.119Z" transform="translate(-202.514 -120.227)" fill="#fff"/>
        <path id="Path_99" data-name="Path 99" d="M399.934,579.061a9.749,9.749,0,0,0,5.613-7.353c.128-.818,1.376-.512,1.249.3a10.924,10.924,0,0,1-6.192,8.148.664.664,0,0,1-.883-.213A.646.646,0,0,1,399.934,579.061Z" transform="translate(-195.624 -114.917)" fill="#fff"/>
        <path id="Path_100" data-name="Path 100" d="M495.116,514.609c-.065.513-.13,1.026-.187,1.547a128.39,128.39,0,0,0-.83,20.809c.014.538.036,1.082.065,1.618a135.349,135.349,0,0,0,11.705,48.437,131.458,131.458,0,0,0,9.561,17.534c5.009,7.725,11.056,15.7,13.159,24.375a22.542,22.542,0,0,1,.519,2.742l-30.716,36.264c-.111.047-.214.1-.326.15l-1.16,1.5c-.207-.275-.416-.566-.623-.841-.121-.159-.235-.327-.356-.486-.078-.109-.157-.218-.233-.312-.026-.036-.052-.073-.07-.1-.077-.094-.138-.189-.207-.275q-1.759-2.428-3.49-4.888c-.008-.007-.008-.007-.01-.022-8.761-12.523-16.554-25.887-22.07-40.008-.166-.425-.34-.856-.492-1.3a125.408,125.408,0,0,1-5.758-19.641,110.834,110.834,0,0,1-1.673-11.094,92.2,92.2,0,0,1,1.724-28.777c4.15-18.823,14.273-36.11,30.242-46.457C494.3,515.124,494.7,514.867,495.116,514.609Z" transform="translate(-203.989 -107.261)" fill="#075454"/>
        <path id="Path_101" data-name="Path 101" d="M498.365,514.991a114.792,114.792,0,0,0-13.616,69.3,49.434,49.434,0,0,0,3.956,14.975,28.351,28.351,0,0,0,9.773,11.276c3.869,2.707,8.14,5.027,11.284,8.628a17.36,17.36,0,0,1,3.947,13.638c-.691,6.059-3.518,11.509-6.468,16.743-3.275,5.811-6.769,11.794-7.18,18.611-.05.826-1.329.7-1.279-.124.716-11.86,10.094-20.621,12.985-31.809,1.349-5.221,1.133-10.88-2.236-15.309-2.946-3.873-7.348-6.27-11.289-8.977a30.255,30.255,0,0,1-9.967-10.669,45.7,45.7,0,0,1-4.517-14.768,111.37,111.37,0,0,1,.484-34.8,116.826,116.826,0,0,1,13.081-37.464c.4-.721,1.439.037,1.041.753Z" transform="translate(-206.847 -107.171)" fill="#fff"/>
        <path id="Path_102" data-name="Path 102" d="M480.871,584.021a17.223,17.223,0,0,1-16.76-14.713c-.117-.818,1.148-1.039,1.266-.22A15.948,15.948,0,0,0,481,582.743C481.822,582.752,481.693,584.031,480.871,584.021Z" transform="translate(-204.343 -114.559)" fill="#fff"/>
        <path id="Path_103" data-name="Path 103" d="M498.448,620.848A33.2,33.2,0,0,0,508.7,598.936c.053-.826,1.331-.7,1.279.124a34.528,34.528,0,0,1-10.714,22.78c-.6.569-1.415-.426-.816-.992Z" transform="translate(-208.959 -118.589)" fill="#fff"/>
        <path id="Path_104" data-name="Path 104" d="M488.576,543.061a9.749,9.749,0,0,0,8.909-2.491c.594-.576,1.407.42.816.992a10.925,10.925,0,0,1-9.849,2.778.664.664,0,0,1-.577-.7A.646.646,0,0,1,488.576,543.061Z" transform="translate(-207.557 -110.748)" fill="#fff"/>
      </g>
      <g id="Group_69" data-name="Group 69">
        <g id="Group_67" data-name="Group 67">
          <circle id="ab6171fa-7d69-4734-b81c-8dff60f9761b" cx="59.247" cy="59.247" r="59.247" transform="translate(333.648 289.291)" fill="#fbe19b"/>
          <path id="Path_132" data-name="Path 132" d="M259.765,262.6c3-2.39,6.5-4.59,10.33-4.466s7.716,3.584,6.922,7.334A60.884,60.884,0,0,1,350.287,238c9.522,3.359,18.86,10.08,21.047,19.938.562,2.53.682,5.305,2.262,7.36,1.992,2.591,5.8,3.177,8.942,2.265l.094-.028a2.8,2.8,0,0,1,3.382,3.952l-2.694,5.025a21.59,21.59,0,0,0,10.286-.219,2.8,2.8,0,0,1,2.97,4.353c-8.884,12.2-23.726,20.073-38.872,19.981-10.765-.066-21.641-3.776-32.117-1.3a27.9,27.9,0,0,0-18.764,39.163c-3.219-3.52-9.44-2.687-12.732.765s-4.144,8.6-3.813,13.362c.507,7.278,3.359,14.135,6.365,20.81-25.2-.793-49.041-18.473-57.065-42.385C231.521,307.024,239.966,278.4,259.765,262.6Z" transform="translate(72.235 29.384)" fill="#2f2e41"/>
        </g>
        <g id="Mask_Group_16" data-name="Mask Group 16" clip-path="url(#clip-path)">
          <g id="Group_68" data-name="Group 68">
            <path id="Path_128" data-name="Path 128" d="M420.113,591.032c-9.275-44.848-20.87-59.8-20.87-59.8l-4.429-3.435-5.327-4.138.026-.532-1.263-.429-.3-.231-.486-.373-.078.084-.165.171-24.1-8.193L332.54,503.768l-14.16-18.406a24.491,24.491,0,0,0-19.593-9.557l-45.223.335a24.491,24.491,0,0,0-16.475,6.535l-29.725,27.572-46.317,22.12-.078-.078-.486.347-7.156,3.422.3,1.537-4.429,3.2S137.6,554.7,128.324,596.436c-2.36,10.618-3.521,33.4-3.94,61.464a10.714,10.714,0,0,0,10.709,10.872H413.356a10.715,10.715,0,0,0,10.709-10.861C423.655,627.368,422.494,602.547,420.113,591.032Z" transform="translate(109.617 -51.031)" fill="#4bcfcf"/>
            <path id="Path_133" data-name="Path 133" d="M87.464,495.253l16.617,90.412,9.971.868Z" transform="translate(204.85 31.207)" opacity="0.2"/>
            <path id="Path_134" data-name="Path 134" d="M348.716,485.026,332.1,582.191l-9.971.933Z" transform="translate(126.641 34.616)" opacity="0.2"/>
          </g>
        </g>
      </g>
    </g>
  </g>
</svg>
